<svg width="34" height="34" viewBox="0 0 34 34" fill="none" xmlns="http://www.w3.org/2000/svg">
<g filter="url(#filter0_d_2248_310)">
<g clip-path="url(#clip0_2248_310)">
<path d="M17 2L3 30H10L17 16L24 30H31L17 2Z" fill="url(#paint0_linear_2248_310)"/>
<path opacity="0.9" d="M17 16L13 24H21L17 16Z" fill="white"/>
<path d="M19.25 26H14.75C14.3358 26 14 26.3358 14 26.75C14 27.1642 14.3358 27.5 14.75 27.5H19.25C19.6642 27.5 20 27.1642 20 26.75C20 26.3358 19.6642 26 19.25 26Z" fill="white" fill-opacity="0.5"/>
</g>
</g>
<defs>
<filter id="filter0_d_2248_310" x="0" y="0" width="34" height="34" filterUnits="userSpaceOnUse" color-interpolation-filters="sRGB">
<feFlood flood-opacity="0" result="BackgroundImageFix"/>
<feColorMatrix in="SourceAlpha" type="matrix" values="0 0 0 0 0 0 0 0 0 0 0 0 0 0 0 0 0 0 127 0" result="hardAlpha"/>
<feOffset dy="1"/>
<feGaussianBlur stdDeviation="0.5"/>
<feComposite in2="hardAlpha" operator="out"/>
<feColorMatrix type="matrix" values="0 0 0 0 0 0 0 0 0 0 0 0 0 0 0 0 0 0 0.05 0"/>
<feBlend mode="normal" in2="BackgroundImageFix" result="effect1_dropShadow_2248_310"/>
<feBlend mode="normal" in="SourceGraphic" in2="effect1_dropShadow_2248_310" result="shape"/>
</filter>
<linearGradient id="paint0_linear_2248_310" x1="3" y1="2" x2="31" y2="30" gradientUnits="userSpaceOnUse">
<stop stop-color="#3B82F6"/>
<stop offset="1" stop-color="#8B5CF6"/>
</linearGradient>
<clipPath id="clip0_2248_310">
<rect width="32" height="32" fill="white" transform="translate(1)"/>
</clipPath>
</defs>
</svg>
